<svg width="450" height="95" viewBox="0 0 450 95" fill="none" xmlns="http://www.w3.org/2000/svg">
<path d="M85.3369 9.67624L85.3366 9.67558C84.8244 9.13067 72.5954 -3.61632 55.392 1.0089C47.8538 3.03514 42.3255 8.19072 38.9613 16.3316C38.1272 18.3503 35.5968 19.1767 29.9357 19.279C29.6771 19.2839 29.4186 19.2954 29.163 19.3075C28.7187 19.3279 27.8926 19.3667 27.7726 19.2543C27.4362 18.941 27.3162 18.4572 27.4673 18.0214C28.3163 15.571 29.393 13.7685 30.1481 12.6871C31.3871 10.9099 31.1183 8.46528 29.523 7.00049L27.5165 5.15883L25.9788 3.72738C24.991 2.80686 23.6591 2.40215 22.3249 2.61292C20.9924 2.82468 19.8528 3.62248 19.1979 4.80298C17.6097 7.66878 15.162 12.2811 14.2043 14.1143L14.0153 14.4737C6.70301 28.344 5.50801 42.2867 10.4634 55.9154C14.962 68.286 22.2528 79.0449 30.9936 86.2094C37.7035 91.7088 44.5907 94.5572 50.9496 94.5568C53.1402 94.5568 55.2689 94.2184 57.3051 93.5343C64.9468 90.9658 70.2446 82.2735 72.2227 69.0582C73.9174 57.7388 72.8191 44.3239 69.3563 34.0489C67.3057 27.9645 62.1713 23.7993 53.6602 21.3153C53.2615 21.1991 52.9421 20.9115 52.7842 20.5266C52.626 20.1405 52.6512 19.712 52.8535 19.3508C54.3235 16.7269 56.3332 15.1032 58.9984 14.3869C68.1523 11.9255 74.9542 18.8769 75.222 19.1562C77.8391 21.9417 82.2376 22.08 85.0263 19.4671C87.8141 16.8538 87.9539 12.4611 85.3369 9.67624ZM81.6978 15.9262C80.8644 16.7068 79.5501 16.6657 78.7499 15.8148C78.3832 15.4328 69.6389 6.49411 57.7335 9.69729C53.7925 10.7564 50.7223 13.2068 48.6089 16.9795C47.6787 18.6395 47.56 20.6029 48.2831 22.3668C49.0051 24.1276 50.4673 25.4437 52.2952 25.977C59.2629 28.0104 63.2194 31.0679 64.7462 35.5983C67.9785 45.1888 68.9996 57.7346 67.4123 68.3401C65.7424 79.4967 61.4924 87.0019 55.7529 88.9311C49.5455 91.0179 41.6451 88.6571 34.0783 82.4547C26.0023 75.8354 19.2387 65.8211 15.0339 54.2576C10.5658 41.9694 11.6704 29.3457 18.3177 16.737L18.5154 16.3604C19.5488 14.3831 21.6945 10.3504 23.1385 7.72319L25.9066 10.2781C24.9998 11.6338 23.8132 13.7151 22.8715 16.4332C22.092 18.6828 22.7145 21.1848 24.4563 22.8069C26.0736 24.3129 27.9896 24.2235 29.3891 24.159C29.5991 24.1494 29.8119 24.139 30.0243 24.1355C33.888 24.0655 41.0807 23.9356 43.4568 18.1849C46.214 11.5134 50.6549 7.31229 56.656 5.69888C71.0716 1.82419 81.3544 12.5352 81.7911 12.9995C82.5727 13.832 82.531 15.1449 81.6978 15.9262Z" fill="#FF0078"/>
<path d="M20.7716 42.0437C20.6169 40.8614 19.5303 40.0255 18.3491 40.1813C17.1648 40.3347 16.3294 41.4177 16.4831 42.6001C16.5674 43.2503 18.6509 58.6343 27.4102 68.4763C27.8317 68.9493 28.4139 69.1937 29.0017 69.2009C29.521 69.2071 30.044 69.0273 30.4631 68.6557C31.3556 67.863 31.4361 66.4983 30.6427 65.6066C22.7807 56.7734 20.7906 42.1896 20.7716 42.0437Z" fill="#FF0078"/>
<path d="M34.3549 75.8626C35.6155 75.8626 36.6373 74.8421 36.6373 73.5832C36.6373 72.3242 35.6155 71.3037 34.3549 71.3037C33.0946 71.3037 32.0728 72.3242 32.0728 73.5832C32.0728 74.8421 33.0946 75.8626 34.3549 75.8626Z" fill="#FF0078"/>
<path d="M120.278 33.0811C119.78 33.0811 119.387 32.9372 119.098 32.6491C118.81 32.3348 118.666 31.9289 118.666 31.4314V6.64645C118.666 6.14893 118.81 5.75614 119.098 5.46809C119.387 5.15386 119.78 4.99674 120.278 4.99674C120.776 4.99674 121.169 5.15386 121.458 5.46809C121.746 5.75614 121.891 6.14893 121.891 6.64645V31.4314C121.891 31.9289 121.746 32.3348 121.458 32.6491C121.169 32.9372 120.776 33.0811 120.278 33.0811ZM159.516 4.99674C159.988 4.99674 160.355 5.15386 160.617 5.46809C160.879 5.75614 161.01 6.14893 161.01 6.64645V31.4314C161.01 31.9289 160.866 32.3348 160.578 32.6491C160.315 32.9372 159.935 33.0811 159.437 33.0811C158.939 33.0811 158.506 32.8586 158.139 32.4134L141.818 10.6136V31.4314C141.818 31.9289 141.673 32.3348 141.385 32.6491C141.123 32.9372 140.756 33.0811 140.284 33.0811C139.812 33.0811 139.445 32.9372 139.183 32.6491C138.92 32.3348 138.789 31.9289 138.789 31.4314V6.64645C138.789 6.14893 138.92 5.75614 139.183 5.46809C139.471 5.15386 139.864 4.99674 140.362 4.99674C140.887 4.99674 141.333 5.21932 141.7 5.66448L157.982 27.4642V6.64645C157.982 6.14893 158.113 5.75614 158.375 5.46809C158.664 5.15386 159.044 4.99674 159.516 4.99674ZM198.534 18.4694C198.927 18.4694 199.242 18.5872 199.478 18.8229C199.74 19.0586 199.871 19.386 199.871 19.8049V29.5853C199.871 30.2138 199.765 30.6851 199.557 30.9993C199.372 31.3136 199.019 31.5624 198.494 31.7456C197.446 32.1909 196.174 32.5444 194.68 32.8062C193.185 33.068 191.691 33.199 190.196 33.199C187.443 33.199 185.069 32.6359 183.077 31.51C181.084 30.384 179.55 28.7604 178.475 26.6394C177.427 24.5183 176.902 21.9784 176.902 19.0193C176.902 16.1127 177.427 13.5988 178.475 11.4778C179.524 9.35669 181.032 7.73316 182.998 6.60718C184.965 5.45499 187.271 4.87891 189.92 4.87891C191.755 4.87891 193.46 5.16696 195.033 5.74304C196.606 6.29294 197.93 7.09162 199.006 8.13905C199.451 8.58422 199.674 9.04246 199.674 9.51381C199.674 9.88042 199.569 10.2077 199.359 10.4958C199.149 10.7576 198.887 10.8886 198.573 10.8886C198.258 10.8886 197.89 10.7315 197.471 10.4172C196.109 9.36979 194.876 8.64967 193.774 8.25689C192.673 7.83792 191.402 7.62843 189.96 7.62843C186.84 7.62843 184.44 8.6104 182.762 10.5743C181.11 12.5383 180.284 15.3533 180.284 19.0193C180.284 22.7639 181.124 25.6181 182.802 27.5821C184.505 29.5199 186.997 30.4887 190.275 30.4887C192.713 30.4887 194.929 30.1221 196.921 29.3889V20.9832H191.179C190.732 20.9832 190.379 20.8654 190.118 20.6297C189.854 20.394 189.724 20.093 189.724 19.7263C189.724 19.3335 189.854 19.0324 190.118 18.8229C190.379 18.5872 190.732 18.4694 191.179 18.4694H198.534ZM218.098 32.8847C217.599 32.8847 217.193 32.7408 216.878 32.4527C216.589 32.1646 216.446 31.7849 216.446 31.3136V6.76429C216.446 6.29294 216.589 5.91326 216.878 5.6252C217.193 5.33715 217.599 5.19314 218.098 5.19314H232.807C233.279 5.19314 233.645 5.31097 233.909 5.54665C234.17 5.78232 234.302 6.10965 234.302 6.52862C234.302 6.94759 234.17 7.27492 233.909 7.51059C233.645 7.74626 233.279 7.8641 232.807 7.8641H219.631V17.4874H232.021C232.493 17.4874 232.859 17.6053 233.122 17.8409C233.384 18.0766 233.515 18.404 233.515 18.8229C233.515 19.2418 233.384 19.5692 233.122 19.8049C232.859 20.0405 232.493 20.1584 232.021 20.1584H219.631V30.2138H232.807C233.279 30.2138 233.645 30.3316 233.909 30.5673C234.17 30.7768 234.302 31.104 234.302 31.5492C234.302 31.9682 234.17 32.2955 233.909 32.5312C233.645 32.7669 233.279 32.8847 232.807 32.8847H218.098ZM270.124 4.99674C270.596 4.99674 270.962 5.15386 271.226 5.46809C271.487 5.75614 271.619 6.14893 271.619 6.64645V31.4314C271.619 31.9289 271.474 32.3348 271.185 32.6491C270.924 32.9372 270.543 33.0811 270.046 33.0811C269.546 33.0811 269.115 32.8586 268.747 32.4134L252.426 10.6136V31.4314C252.426 31.9289 252.282 32.3348 251.993 32.6491C251.731 32.9372 251.363 33.0811 250.891 33.0811C250.419 33.0811 250.054 32.9372 249.79 32.6491C249.529 32.3348 249.397 31.9289 249.397 31.4314V6.64645C249.397 6.14893 249.529 5.75614 249.79 5.46809C250.079 5.15386 250.473 4.99674 250.97 4.99674C251.495 4.99674 251.941 5.21932 252.307 5.66448L268.59 27.4642V6.64645C268.59 6.14893 268.721 5.75614 268.983 5.46809C269.272 5.15386 269.652 4.99674 270.124 4.99674ZM290.146 33.0811C289.648 33.0811 289.255 32.9372 288.966 32.6491C288.677 32.3348 288.532 31.9289 288.532 31.4314V6.64645C288.532 6.14893 288.677 5.75614 288.966 5.46809C289.255 5.15386 289.648 4.99674 290.146 4.99674C290.643 4.99674 291.037 5.15386 291.326 5.46809C291.615 5.75614 291.757 6.14893 291.757 6.64645V31.4314C291.757 31.9289 291.615 32.3348 291.326 32.6491C291.037 32.9372 290.643 33.0811 290.146 33.0811ZM320.259 33.199C317.689 33.199 315.448 32.6229 313.533 31.4707C311.645 30.3184 310.191 28.6819 309.168 26.5608C308.146 24.4398 307.634 21.9391 307.634 19.0586C307.634 16.1519 308.133 13.6381 309.128 11.517C310.151 9.36979 311.607 7.73316 313.494 6.60718C315.408 5.45499 317.663 4.87891 320.259 4.87891C322.855 4.87891 325.096 5.45499 326.984 6.60718C328.899 7.73316 330.353 9.36979 331.35 11.517C332.373 13.6381 332.883 16.1388 332.883 19.0193C332.883 21.8998 332.373 24.4136 331.35 26.5608C330.327 28.6819 328.858 30.3184 326.945 31.4707C325.057 32.6229 322.827 33.199 320.259 33.199ZM320.259 30.4494C323.195 30.4494 325.476 29.4675 327.102 27.5035C328.754 25.5135 329.579 22.6854 329.579 19.0193C329.579 15.3533 328.767 12.5383 327.141 10.5743C325.516 8.6104 323.221 7.62843 320.259 7.62843C317.321 7.62843 315.027 8.6235 313.376 10.6136C311.751 12.5776 310.937 15.3795 310.937 19.0193C310.937 22.6591 311.751 25.4742 313.376 27.4642C315.027 29.4543 317.321 30.4494 320.259 30.4494ZM359.568 33.199C355.95 33.199 353.21 32.2563 351.348 30.3709C349.487 28.4855 348.556 25.7098 348.556 22.0438V6.64645C348.556 6.14893 348.701 5.75614 348.988 5.46809C349.277 5.15386 349.67 4.99674 350.168 4.99674C350.64 4.99674 351.02 5.15386 351.309 5.46809C351.596 5.75614 351.741 6.14893 351.741 6.64645V22.3187C351.741 25.0158 352.398 27.0453 353.707 28.4069C355.044 29.7685 356.998 30.4494 359.568 30.4494C362.137 30.4494 364.077 29.7685 365.389 28.4069C366.699 27.0453 367.355 25.0158 367.355 22.3187V6.64645C367.355 6.14893 367.5 5.75614 367.787 5.46809C368.102 5.15386 368.495 4.99674 368.967 4.99674C369.466 4.99674 369.86 5.15386 370.147 5.46809C370.436 5.75614 370.58 6.14893 370.58 6.64645V22.0438C370.58 25.6835 369.637 28.4594 367.749 30.3709C365.887 32.2563 363.159 33.199 359.568 33.199ZM396.123 33.199C394.156 33.199 392.268 32.9108 390.459 32.3348C388.676 31.7325 387.247 30.9339 386.171 29.9388C385.778 29.5721 385.582 29.114 385.582 28.5641C385.582 28.1974 385.687 27.8832 385.897 27.6214C386.107 27.3333 386.356 27.1893 386.643 27.1893C386.985 27.1893 387.351 27.3333 387.744 27.6214C390.183 29.5067 392.963 30.4494 396.082 30.4494C398.338 30.4494 400.068 30.0174 401.274 29.1532C402.481 28.2891 403.083 27.0583 403.083 25.461C403.083 24.5445 402.796 23.8113 402.218 23.2614C401.641 22.6854 400.88 22.227 399.937 21.8866C398.993 21.5463 397.721 21.1928 396.123 20.8261C393.973 20.3286 392.202 19.8049 390.812 19.255C389.449 18.7051 388.335 17.9195 387.47 16.8982C386.63 15.877 386.212 14.5415 386.212 12.8918C386.212 11.3206 386.63 9.93278 387.47 8.72823C388.335 7.49749 389.528 6.5548 391.048 5.90016C392.596 5.21932 394.352 4.87891 396.318 4.87891C398.155 4.87891 399.858 5.16696 401.431 5.74304C403.032 6.29294 404.369 7.09162 405.443 8.13905C405.863 8.55802 406.072 9.01628 406.072 9.51381C406.072 9.88042 405.968 10.2077 405.757 10.4958C405.549 10.7576 405.3 10.8886 405.011 10.8886C404.722 10.8886 404.341 10.7446 403.869 10.4565C402.585 9.40907 401.393 8.67585 400.291 8.25689C399.19 7.83792 397.866 7.62843 396.318 7.62843C394.143 7.62843 392.451 8.08667 391.246 9.00318C390.04 9.8935 389.437 11.1504 389.437 12.774C389.437 14.1618 389.962 15.2092 391.01 15.9163C392.085 16.5971 393.723 17.1994 395.925 17.7231C398.312 18.2991 400.187 18.8361 401.55 19.3335C402.913 19.8049 404.041 20.525 404.932 21.4939C405.851 22.4627 406.308 23.7589 406.308 25.3825C406.308 26.9275 405.876 28.2891 405.011 29.4675C404.171 30.6458 402.979 31.5624 401.431 32.217C399.885 32.8716 398.115 33.199 396.123 33.199Z" fill="black"/>
<path d="M123.673 56.81C122.239 56.81 120.988 56.4957 119.92 55.8673C118.866 55.2242 118.054 54.3107 117.483 53.1269C116.927 51.9284 116.649 50.518 116.649 48.8957C116.649 47.2734 116.927 45.8703 117.483 44.6865C118.054 43.5026 118.866 42.5965 119.92 41.968C120.988 41.325 122.239 41.0034 123.673 41.0034C124.654 41.0034 125.583 41.1715 126.461 41.5076C127.354 41.8292 128.107 42.2969 128.722 42.9107C128.927 43.1007 129.029 43.3126 129.029 43.5465C129.029 43.7073 128.978 43.8461 128.876 43.963C128.788 44.08 128.686 44.1384 128.568 44.1384C128.422 44.1384 128.254 44.0653 128.064 43.9192C127.273 43.2761 126.556 42.8303 125.912 42.5819C125.268 42.3334 124.515 42.2092 123.651 42.2092C121.881 42.2092 120.505 42.7938 119.525 43.963C118.559 45.1323 118.076 46.7765 118.076 48.8957C118.076 51.0296 118.559 52.6811 119.525 53.8503C120.505 55.0196 121.881 55.6042 123.651 55.6042C124.515 55.6042 125.268 55.48 125.912 55.2315C126.556 54.983 127.273 54.5373 128.064 53.8942C128.283 53.748 128.451 53.675 128.568 53.675C128.686 53.675 128.788 53.7334 128.876 53.8503C128.978 53.9673 129.029 54.1061 129.029 54.2669C129.029 54.5007 128.927 54.7126 128.722 54.9026C128.107 55.5165 127.354 55.9915 126.461 56.3276C125.583 56.6492 124.654 56.81 123.673 56.81ZM144.729 55.9111C144.773 55.9988 144.795 56.0865 144.795 56.1742C144.795 56.335 144.729 56.4738 144.597 56.5907C144.466 56.693 144.312 56.7442 144.136 56.7442C144.019 56.7442 143.902 56.7076 143.785 56.6346C143.683 56.5615 143.602 56.4592 143.544 56.3276L141.875 52.513H133.358L131.668 56.3276C131.536 56.6053 131.331 56.7442 131.053 56.7442C130.878 56.7442 130.724 56.693 130.592 56.5907C130.475 56.4738 130.417 56.3276 130.417 56.1523C130.417 56.05 130.431 55.9696 130.461 55.9111L136.87 41.5296C137.002 41.208 137.244 41.0473 137.595 41.0473C137.756 41.0473 137.902 41.0911 138.034 41.1788C138.18 41.2665 138.283 41.3834 138.341 41.5296L144.729 55.9111ZM141.348 51.3292L137.617 42.845L133.863 51.3292H141.348ZM159.057 55.8234C159.145 55.955 159.189 56.0792 159.189 56.1961C159.189 56.3569 159.123 56.4957 158.991 56.6126C158.874 56.715 158.735 56.7661 158.574 56.7661C158.326 56.7661 158.128 56.6492 157.982 56.4153L155.018 51.68C154.594 51.0076 154.155 50.5473 153.701 50.2988C153.262 50.0503 152.647 49.9261 151.857 49.9261H148.85V56.0426C148.85 56.2619 148.784 56.4373 148.652 56.5688C148.535 56.6857 148.374 56.7442 148.169 56.7442C147.965 56.7442 147.796 56.6857 147.665 56.5688C147.547 56.4373 147.489 56.2619 147.489 56.0426V41.8584C147.489 41.6684 147.555 41.5076 147.686 41.3761C147.833 41.2446 148.008 41.1788 148.213 41.1788H153.679C155.304 41.1788 156.555 41.5515 157.433 42.2969C158.311 43.0276 158.75 44.1019 158.75 45.5196C158.75 46.7619 158.377 47.7484 157.63 48.4792C156.884 49.21 155.83 49.6338 154.469 49.7507C154.821 49.8676 155.143 50.065 155.435 50.3426C155.728 50.6057 156.028 50.9784 156.335 51.4607L159.057 55.8234ZM153.591 48.7642C156.138 48.7642 157.411 47.6753 157.411 45.4976C157.411 44.4307 157.096 43.6415 156.467 43.13C155.838 42.6038 154.879 42.3407 153.591 42.3407H148.828V48.7642H153.591ZM163.176 56.6346C162.971 56.6346 162.796 56.5688 162.649 56.4373C162.517 56.3057 162.452 56.145 162.452 55.955V41.8584C162.452 41.6684 162.517 41.5076 162.649 41.3761C162.796 41.2446 162.971 41.1788 163.176 41.1788H167.435C169.878 41.1788 171.766 41.8438 173.098 43.1738C174.444 44.5038 175.117 46.4111 175.117 48.8957C175.117 51.3803 174.444 53.295 173.098 54.6396C171.766 55.9696 169.878 56.6346 167.435 56.6346H163.176ZM167.369 55.4507C171.583 55.4507 173.691 53.2657 173.691 48.8957C173.691 44.5403 171.583 42.3626 167.369 42.3626H163.813V55.4507H167.369ZM179.188 56.7442C178.983 56.7442 178.815 56.6784 178.683 56.5469C178.566 56.4153 178.508 56.2473 178.508 56.0426V41.7707C178.508 41.5661 178.566 41.398 178.683 41.2665C178.815 41.135 178.983 41.0692 179.188 41.0692C179.393 41.0692 179.554 41.135 179.671 41.2665C179.803 41.398 179.869 41.5661 179.869 41.7707V56.0426C179.869 56.2473 179.803 56.4153 179.671 56.5469C179.554 56.6784 179.393 56.7442 179.188 56.7442ZM190.167 56.81C188.762 56.81 187.54 56.4957 186.501 55.8673C185.462 55.2242 184.665 54.3107 184.109 53.1269C183.553 51.9284 183.275 50.5253 183.275 48.9176C183.275 47.2953 183.553 45.8923 184.109 44.7084C184.665 43.51 185.455 42.5965 186.479 41.968C187.518 41.325 188.748 41.0034 190.167 41.0034C191.587 41.0034 192.816 41.325 193.855 41.968C194.894 42.5965 195.692 43.5026 196.248 44.6865C196.804 45.8703 197.082 47.2734 197.082 48.8957C197.082 50.518 196.804 51.9284 196.248 53.1269C195.692 54.3107 194.894 55.2242 193.855 55.8673C192.816 56.4957 191.587 56.81 190.167 56.81ZM190.167 55.6042C191.909 55.6042 193.262 55.0196 194.228 53.8503C195.194 52.6811 195.677 51.0296 195.677 48.8957C195.677 46.7619 195.194 45.1176 194.228 43.963C193.277 42.7938 191.923 42.2092 190.167 42.2092C188.426 42.2092 187.072 42.7938 186.106 43.963C185.155 45.1323 184.679 46.7765 184.679 48.8957C184.679 51.015 185.155 52.6665 186.106 53.8503C187.072 55.0196 188.426 55.6042 190.167 55.6042ZM211.573 41.42C211.676 41.1715 211.866 41.0473 212.144 41.0473C212.32 41.0473 212.473 41.1057 212.605 41.2226C212.751 41.325 212.825 41.4565 212.825 41.6173C212.825 41.705 212.803 41.7926 212.759 41.8803L206.371 56.2619C206.312 56.408 206.21 56.525 206.064 56.6126C205.932 56.7003 205.786 56.7442 205.625 56.7442C205.478 56.7442 205.332 56.7076 205.186 56.6346C205.054 56.5469 204.951 56.4226 204.878 56.2619L198.512 41.8803C198.468 41.7926 198.446 41.7123 198.446 41.6392C198.446 41.4638 198.512 41.325 198.644 41.2226C198.79 41.1057 198.951 41.0473 199.127 41.0473C199.405 41.0473 199.595 41.1715 199.698 41.42L205.646 54.8588L211.573 41.42ZM226.789 55.9111C226.833 55.9988 226.855 56.0865 226.855 56.1742C226.855 56.335 226.789 56.4738 226.657 56.5907C226.526 56.693 226.372 56.7442 226.196 56.7442C226.079 56.7442 225.962 56.7076 225.845 56.6346C225.743 56.5615 225.662 56.4592 225.604 56.3276L223.936 52.513H215.418L213.728 56.3276C213.596 56.6053 213.392 56.7442 213.114 56.7442C212.938 56.7442 212.784 56.693 212.653 56.5907C212.536 56.4738 212.477 56.3276 212.477 56.1523C212.477 56.05 212.492 55.9696 212.521 55.9111L218.931 41.5296C219.062 41.208 219.304 41.0473 219.655 41.0473C219.816 41.0473 219.962 41.0911 220.094 41.1788C220.24 41.2665 220.343 41.3834 220.401 41.5296L226.789 55.9111ZM223.409 51.3292L219.677 42.845L215.923 51.3292H223.409ZM234.205 56.81C233.122 56.81 232.076 56.6419 231.066 56.3057C230.071 55.955 229.288 55.4873 228.717 54.9026C228.527 54.7419 228.432 54.53 228.432 54.2669C228.432 54.1061 228.476 53.9673 228.564 53.8503C228.666 53.7334 228.776 53.675 228.893 53.675C229.039 53.675 229.207 53.748 229.398 53.8942C230.773 55.0342 232.376 55.6042 234.205 55.6042C235.537 55.6042 236.561 55.3411 237.278 54.815C238.01 54.2742 238.376 53.5142 238.376 52.535C238.376 51.965 238.2 51.5046 237.849 51.1538C237.498 50.803 237.051 50.5326 236.51 50.3426C235.968 50.138 235.244 49.9334 234.337 49.7288C233.137 49.4657 232.164 49.1953 231.417 48.9176C230.686 48.64 230.064 48.2234 229.551 47.668C229.039 47.098 228.783 46.338 228.783 45.388C228.783 44.5257 229.01 43.7657 229.464 43.108C229.932 42.4357 230.583 41.9169 231.417 41.5515C232.251 41.1861 233.21 41.0034 234.293 41.0034C235.303 41.0034 236.254 41.1715 237.146 41.5076C238.039 41.8292 238.778 42.2969 239.364 42.9107C239.554 43.1007 239.649 43.3126 239.649 43.5465C239.649 43.7073 239.598 43.8461 239.495 43.963C239.407 44.08 239.305 44.1384 239.188 44.1384C239.042 44.1384 238.873 44.0653 238.683 43.9192C237.893 43.2761 237.176 42.8303 236.532 42.5819C235.903 42.3334 235.156 42.2092 234.293 42.2092C232.99 42.2092 231.973 42.4869 231.242 43.0423C230.51 43.5976 230.144 44.3723 230.144 45.3661C230.144 45.9653 230.305 46.455 230.627 46.835C230.949 47.2003 231.366 47.4926 231.878 47.7119C232.405 47.9311 233.078 48.143 233.898 48.3476L234.468 48.4792C235.654 48.7715 236.59 49.0419 237.278 49.2903C237.966 49.5388 238.544 49.9261 239.012 50.4523C239.495 50.9638 239.737 51.658 239.737 52.535C239.737 53.368 239.503 54.1134 239.034 54.7711C238.581 55.4142 237.929 55.9184 237.081 56.2838C236.246 56.6346 235.288 56.81 234.205 56.81ZM249.207 56.81C247.773 56.81 246.521 56.4957 245.453 55.8673C244.4 55.2242 243.587 54.3107 243.017 53.1269C242.461 51.9284 242.182 50.518 242.182 48.8957C242.182 47.2734 242.461 45.8703 243.017 44.6865C243.587 43.5026 244.4 42.5965 245.453 41.968C246.521 41.325 247.773 41.0034 249.207 41.0034C250.187 41.0034 251.117 41.1715 251.995 41.5076C252.887 41.8292 253.641 42.2969 254.256 42.9107C254.461 43.1007 254.563 43.3126 254.563 43.5465C254.563 43.7073 254.512 43.8461 254.409 43.963C254.321 44.08 254.219 44.1384 254.102 44.1384C253.956 44.1384 253.787 44.0653 253.597 43.9192C252.807 43.2761 252.09 42.8303 251.446 42.5819C250.802 42.3334 250.048 42.2092 249.185 42.2092C247.414 42.2092 246.039 42.7938 245.058 43.963C244.092 45.1323 243.609 46.7765 243.609 48.8957C243.609 51.0296 244.092 52.6811 245.058 53.8503C246.039 55.0196 247.414 55.6042 249.185 55.6042C250.048 55.6042 250.802 55.48 251.446 55.2315C252.09 54.983 252.807 54.5373 253.597 53.8942C253.817 53.748 253.985 53.675 254.102 53.675C254.219 53.675 254.321 53.7334 254.409 53.8503C254.512 53.9673 254.563 54.1061 254.563 54.2669C254.563 54.5007 254.461 54.7126 254.256 54.9026C253.641 55.5165 252.887 55.9915 251.995 56.3276C251.117 56.6492 250.187 56.81 249.207 56.81ZM263.536 56.81C261.56 56.81 260.06 56.2911 259.036 55.2534C258.026 54.2157 257.521 52.6884 257.521 50.6715V41.7707C257.521 41.5515 257.579 41.3834 257.696 41.2665C257.828 41.135 257.996 41.0692 258.201 41.0692C258.406 41.0692 258.567 41.135 258.684 41.2665C258.816 41.3834 258.882 41.5515 258.882 41.7707V50.825C258.882 54.0111 260.433 55.6042 263.536 55.6042C265.072 55.6042 266.228 55.2023 267.004 54.3984C267.794 53.5946 268.189 52.4034 268.189 50.825V41.7707C268.189 41.5661 268.248 41.398 268.365 41.2665C268.496 41.135 268.665 41.0692 268.87 41.0692C269.075 41.0692 269.236 41.135 269.353 41.2665C269.47 41.3834 269.528 41.5515 269.528 41.7707V50.6715C269.528 52.6884 269.016 54.2157 267.992 55.2534C266.982 56.2911 265.496 56.81 263.536 56.81ZM274.132 56.6346C273.942 56.6346 273.774 56.5761 273.628 56.4592C273.496 56.3423 273.43 56.1961 273.43 56.0207V41.7707C273.43 41.5661 273.489 41.398 273.606 41.2665C273.737 41.135 273.906 41.0692 274.111 41.0692C274.33 41.0692 274.498 41.135 274.615 41.2665C274.732 41.3834 274.791 41.5515 274.791 41.7707V55.4507H282.298C282.489 55.4507 282.635 55.5019 282.737 55.6042C282.854 55.7065 282.913 55.8526 282.913 56.0426C282.913 56.2326 282.854 56.3788 282.737 56.4811C282.635 56.5834 282.489 56.6346 282.298 56.6346H274.132ZM297.767 55.9111C297.811 55.9988 297.832 56.0865 297.832 56.1742C297.832 56.335 297.767 56.4738 297.635 56.5907C297.503 56.693 297.35 56.7442 297.174 56.7442C297.057 56.7442 296.94 56.7076 296.823 56.6346C296.72 56.5615 296.64 56.4592 296.581 56.3276L294.913 52.513H286.396L284.706 56.3276C284.574 56.6053 284.369 56.7442 284.091 56.7442C283.915 56.7442 283.762 56.693 283.63 56.5907C283.513 56.4738 283.454 56.3276 283.454 56.1523C283.454 56.05 283.469 55.9696 283.498 55.9111L289.908 41.5296C290.04 41.208 290.281 41.0473 290.632 41.0473C290.793 41.0473 290.94 41.0911 291.071 41.1788C291.218 41.2665 291.32 41.3834 291.379 41.5296L297.767 55.9111ZM294.386 51.3292L290.654 42.845L286.901 51.3292H294.386ZM312.093 55.8234C312.181 55.955 312.225 56.0792 312.225 56.1961C312.225 56.3569 312.159 56.4957 312.028 56.6126C311.911 56.715 311.771 56.7661 311.611 56.7661C311.362 56.7661 311.164 56.6492 311.018 56.4153L308.054 51.68C307.63 51.0076 307.191 50.5473 306.737 50.2988C306.298 50.0503 305.684 49.9261 304.893 49.9261H301.886V56.0426C301.886 56.2619 301.82 56.4373 301.689 56.5688C301.572 56.6857 301.411 56.7442 301.206 56.7442C301.001 56.7442 300.832 56.6857 300.701 56.5688C300.584 56.4373 300.525 56.2619 300.525 56.0426V41.8584C300.525 41.6684 300.591 41.5076 300.723 41.3761C300.869 41.2446 301.045 41.1788 301.25 41.1788H306.715C308.34 41.1788 309.591 41.5515 310.469 42.2969C311.347 43.0276 311.786 44.1019 311.786 45.5196C311.786 46.7619 311.413 47.7484 310.667 48.4792C309.92 49.21 308.867 49.6338 307.506 49.7507C307.857 49.8676 308.179 50.065 308.471 50.3426C308.764 50.6057 309.064 50.9784 309.371 51.4607L312.093 55.8234ZM306.628 48.7642C309.174 48.7642 310.447 47.6753 310.447 45.4976C310.447 44.4307 310.132 43.6415 309.503 43.13C308.874 42.6038 307.915 42.3407 306.628 42.3407H301.864V48.7642H306.628ZM321.743 56.6346C321.538 56.6346 321.362 56.5688 321.216 56.4373C321.084 56.3057 321.018 56.145 321.018 55.955V41.8584C321.018 41.6684 321.084 41.5076 321.216 41.3761C321.362 41.2446 321.538 41.1788 321.743 41.1788H326.001C328.445 41.1788 330.333 41.8438 331.665 43.1738C333.011 44.5038 333.684 46.4111 333.684 48.8957C333.684 51.3803 333.011 53.295 331.665 54.6396C330.333 55.9696 328.445 56.6346 326.001 56.6346H321.743ZM325.936 55.4507C330.15 55.4507 332.257 53.2657 332.257 48.8957C332.257 44.5403 330.15 42.3626 325.936 42.3626H322.379V55.4507H325.936ZM337.756 56.7442C337.551 56.7442 337.383 56.6784 337.251 56.5469C337.134 56.4153 337.076 56.2473 337.076 56.0426V41.7707C337.076 41.5661 337.134 41.398 337.251 41.2665C337.383 41.135 337.551 41.0692 337.756 41.0692C337.961 41.0692 338.122 41.135 338.239 41.2665C338.371 41.398 338.437 41.5661 338.437 41.7707V56.0426C338.437 56.2473 338.371 56.4153 338.239 56.5469C338.122 56.6784 337.961 56.7442 337.756 56.7442ZM347.197 56.81C346.114 56.81 345.068 56.6419 344.058 56.3057C343.063 55.955 342.28 55.4873 341.709 54.9026C341.519 54.7419 341.424 54.53 341.424 54.2669C341.424 54.1061 341.468 53.9673 341.556 53.8503C341.658 53.7334 341.768 53.675 341.885 53.675C342.031 53.675 342.2 53.748 342.39 53.8942C343.765 55.0342 345.368 55.6042 347.197 55.6042C348.529 55.6042 349.553 55.3411 350.27 54.815C351.002 54.2742 351.368 53.5142 351.368 52.535C351.368 51.965 351.192 51.5046 350.841 51.1538C350.49 50.803 350.043 50.5326 349.502 50.3426C348.961 50.138 348.236 49.9334 347.329 49.7288C346.129 49.4657 345.156 49.1953 344.409 48.9176C343.678 48.64 343.056 48.2234 342.543 47.668C342.031 47.098 341.775 46.338 341.775 45.388C341.775 44.5257 342.002 43.7657 342.456 43.108C342.924 42.4357 343.575 41.9169 344.409 41.5515C345.243 41.1861 346.202 41.0034 347.285 41.0034C348.295 41.0034 349.246 41.1715 350.139 41.5076C351.031 41.8292 351.77 42.2969 352.356 42.9107C352.546 43.1007 352.641 43.3126 352.641 43.5465C352.641 43.7073 352.59 43.8461 352.487 43.963C352.4 44.08 352.297 44.1384 352.18 44.1384C352.034 44.1384 351.865 44.0653 351.675 43.9192C350.885 43.2761 350.168 42.8303 349.524 42.5819C348.895 42.3334 348.148 42.2092 347.285 42.2092C345.982 42.2092 344.965 42.4869 344.234 43.0423C343.502 43.5976 343.136 44.3723 343.136 45.3661C343.136 45.9653 343.297 46.455 343.619 46.835C343.941 47.2003 344.358 47.4926 344.87 47.7119C345.397 47.9311 346.07 48.143 346.89 48.3476L347.461 48.4792C348.646 48.7715 349.582 49.0419 350.27 49.2903C350.958 49.5388 351.536 49.9261 352.004 50.4523C352.487 50.9638 352.729 51.658 352.729 52.535C352.729 53.368 352.495 54.1134 352.026 54.7711C351.573 55.4142 350.921 55.9184 350.073 56.2838C349.239 56.6346 348.28 56.81 347.197 56.81ZM356.493 56.6346C356.289 56.6346 356.113 56.5688 355.967 56.4373C355.835 56.3057 355.769 56.145 355.769 55.955V41.8584C355.769 41.6684 355.835 41.5076 355.967 41.3761C356.113 41.2446 356.289 41.1788 356.493 41.1788H364.835C365.025 41.1788 365.171 41.23 365.274 41.3323C365.391 41.4346 365.45 41.5807 365.45 41.7707C365.45 41.9461 365.391 42.085 365.274 42.1873C365.171 42.2896 365.025 42.3407 364.835 42.3407H357.108V48.1942H364.396C364.586 48.1942 364.732 48.2453 364.835 48.3476C364.952 48.45 365.011 48.5961 365.011 48.7861C365.011 48.9761 364.952 49.1223 364.835 49.2246C364.732 49.3269 364.586 49.378 364.396 49.378H357.108V55.4726H364.835C365.025 55.4726 365.171 55.5238 365.274 55.6261C365.391 55.7138 365.45 55.8526 365.45 56.0426C365.45 56.2326 365.391 56.3788 365.274 56.4811C365.171 56.5834 365.025 56.6346 364.835 56.6346H356.493ZM381.198 55.9111C381.242 55.9988 381.264 56.0865 381.264 56.1742C381.264 56.335 381.198 56.4738 381.066 56.5907C380.934 56.693 380.781 56.7442 380.605 56.7442C380.488 56.7442 380.371 56.7076 380.254 56.6346C380.151 56.5615 380.071 56.4592 380.012 56.3276L378.344 52.513H369.827L368.137 56.3276C368.005 56.6053 367.8 56.7442 367.522 56.7442C367.347 56.7442 367.193 56.693 367.061 56.5907C366.944 56.4738 366.886 56.3276 366.886 56.1523C366.886 56.05 366.9 55.9696 366.929 55.9111L373.339 41.5296C373.471 41.208 373.712 41.0473 374.064 41.0473C374.225 41.0473 374.371 41.0911 374.503 41.1788C374.649 41.2665 374.751 41.3834 374.81 41.5296L381.198 55.9111ZM377.817 51.3292L374.086 42.845L370.332 51.3292H377.817ZM388.614 56.81C387.531 56.81 386.484 56.6419 385.475 56.3057C384.479 55.955 383.697 55.4873 383.126 54.9026C382.936 54.7419 382.84 54.53 382.84 54.2669C382.84 54.1061 382.884 53.9673 382.972 53.8503C383.075 53.7334 383.184 53.675 383.301 53.675C383.448 53.675 383.616 53.748 383.806 53.8942C385.182 55.0342 386.784 55.6042 388.614 55.6042C389.945 55.6042 390.97 55.3411 391.687 54.815C392.418 54.2742 392.784 53.5142 392.784 52.535C392.784 51.965 392.609 51.5046 392.257 51.1538C391.906 50.803 391.46 50.5326 390.918 50.3426C390.377 50.138 389.653 49.9334 388.745 49.7288C387.545 49.4657 386.572 49.1953 385.826 48.9176C385.094 48.64 384.472 48.2234 383.96 47.668C383.448 47.098 383.192 46.338 383.192 45.388C383.192 44.5257 383.418 43.7657 383.872 43.108C384.34 42.4357 384.992 41.9169 385.826 41.5515C386.66 41.1861 387.618 41.0034 388.701 41.0034C389.711 41.0034 390.662 41.1715 391.555 41.5076C392.448 41.8292 393.187 42.2969 393.772 42.9107C393.962 43.1007 394.057 43.3126 394.057 43.5465C394.057 43.7073 394.006 43.8461 393.904 43.963C393.816 44.08 393.714 44.1384 393.597 44.1384C393.45 44.1384 393.282 44.0653 393.092 43.9192C392.301 43.2761 391.584 42.8303 390.94 42.5819C390.311 42.3334 389.565 42.2092 388.701 42.2092C387.399 42.2092 386.382 42.4869 385.65 43.0423C384.918 43.5976 384.553 44.3723 384.553 45.3661C384.553 45.9653 384.714 46.455 385.036 46.835C385.357 47.2003 385.775 47.4926 386.287 47.7119C386.814 47.9311 387.487 48.143 388.306 48.3476L388.877 48.4792C390.062 48.7715 390.999 49.0419 391.687 49.2903C392.375 49.5388 392.953 49.9261 393.421 50.4523C393.904 50.9638 394.145 51.658 394.145 52.535C394.145 53.368 393.911 54.1134 393.443 54.7711C392.989 55.4142 392.338 55.9184 391.489 56.2838C390.655 56.6346 389.697 56.81 388.614 56.81ZM397.908 56.6346C397.703 56.6346 397.528 56.5688 397.381 56.4373C397.25 56.3057 397.184 56.145 397.184 55.955V41.8584C397.184 41.6684 397.25 41.5076 397.381 41.3761C397.528 41.2446 397.703 41.1788 397.908 41.1788H406.25C406.44 41.1788 406.586 41.23 406.689 41.3323C406.806 41.4346 406.864 41.5807 406.864 41.7707C406.864 41.9461 406.806 42.085 406.689 42.1873C406.586 42.2896 406.44 42.3407 406.25 42.3407H398.523V48.1942H405.811C406.001 48.1942 406.147 48.2453 406.25 48.3476C406.367 48.45 406.425 48.5961 406.425 48.7861C406.425 48.9761 406.367 49.1223 406.25 49.2246C406.147 49.3269 406.001 49.378 405.811 49.378H398.523V55.4726H406.25C406.44 55.4726 406.586 55.5238 406.689 55.6261C406.806 55.7138 406.864 55.8526 406.864 56.0426C406.864 56.2326 406.806 56.3788 406.689 56.4811C406.586 56.5834 406.44 56.6346 406.25 56.6346H397.908ZM117.922 82.3211C117.717 82.3211 117.549 82.2626 117.417 82.1457C117.3 82.0142 117.242 81.8388 117.242 81.6196V67.4353C117.242 67.2453 117.307 67.0846 117.439 66.953C117.586 66.8215 117.761 66.7557 117.966 66.7557H123.103C124.712 66.7557 125.956 67.143 126.834 67.9176C127.727 68.6923 128.173 69.7884 128.173 71.2061C128.173 72.6384 127.727 73.7492 126.834 74.5384C125.942 75.313 124.698 75.7003 123.103 75.7003H118.603V81.6196C118.603 81.8388 118.537 82.0142 118.405 82.1457C118.288 82.2626 118.127 82.3211 117.922 82.3211ZM123.015 74.5384C125.546 74.5384 126.812 73.4277 126.812 71.2061C126.812 69.0138 125.546 67.9176 123.015 67.9176H118.603V74.5384H123.015ZM142.808 81.4003C142.896 81.5319 142.94 81.6561 142.94 81.773C142.94 81.9338 142.874 82.0726 142.742 82.1896C142.625 82.2919 142.486 82.343 142.325 82.343C142.076 82.343 141.879 82.2261 141.732 81.9923L138.769 77.2569C138.345 76.5846 137.906 76.1242 137.452 75.8757C137.013 75.6273 136.398 75.503 135.608 75.503H132.601V81.6196C132.601 81.8388 132.535 82.0142 132.403 82.1457C132.286 82.2626 132.125 82.3211 131.92 82.3211C131.715 82.3211 131.547 82.2626 131.415 82.1457C131.298 82.0142 131.24 81.8388 131.24 81.6196V67.4353C131.24 67.2453 131.306 67.0846 131.437 66.953C131.584 66.8215 131.759 66.7557 131.964 66.7557H137.43C139.054 66.7557 140.306 67.1284 141.184 67.8738C142.062 68.6046 142.501 69.6788 142.501 71.0965C142.501 72.3388 142.128 73.3253 141.381 74.0561C140.635 74.7869 139.581 75.2107 138.22 75.3276C138.571 75.4446 138.893 75.6419 139.186 75.9196C139.479 76.1826 139.779 76.5553 140.086 77.0376L142.808 81.4003ZM137.342 74.3411C139.888 74.3411 141.162 73.2523 141.162 71.0746C141.162 70.0076 140.847 69.2184 140.218 68.7069C139.588 68.1807 138.63 67.9176 137.342 67.9176H132.579V74.3411H137.342ZM146.927 82.2115C146.722 82.2115 146.546 82.1457 146.4 82.0142C146.268 81.8826 146.203 81.7219 146.203 81.5319V67.4353C146.203 67.2453 146.268 67.0846 146.4 66.953C146.546 66.8215 146.722 66.7557 146.927 66.7557H155.268C155.459 66.7557 155.605 66.8069 155.707 66.9092C155.825 67.0115 155.883 67.1576 155.883 67.3476C155.883 67.523 155.825 67.6619 155.707 67.7642C155.605 67.8665 155.459 67.9176 155.268 67.9176H147.542V73.7711H154.829C155.02 73.7711 155.166 73.8223 155.268 73.9246C155.386 74.0269 155.444 74.173 155.444 74.363C155.444 74.553 155.386 74.6992 155.268 74.8015C155.166 74.9038 155.02 74.955 154.829 74.955H147.542V81.0496H155.268C155.459 81.0496 155.605 81.1007 155.707 81.203C155.825 81.2907 155.883 81.4296 155.883 81.6196C155.883 81.8096 155.825 81.9557 155.707 82.058C155.605 82.1603 155.459 82.2115 155.268 82.2115H146.927ZM159.639 82.2115C159.434 82.2115 159.259 82.1457 159.112 82.0142C158.981 81.8826 158.915 81.7219 158.915 81.5319V67.4353C158.915 67.2453 158.981 67.0846 159.112 66.953C159.259 66.8215 159.434 66.7557 159.639 66.7557H163.898C166.342 66.7557 168.229 67.4207 169.561 68.7507C170.907 70.0807 171.581 71.988 171.581 74.4726C171.581 76.9573 170.907 78.8719 169.561 80.2165C168.229 81.5465 166.342 82.2115 163.898 82.2115H159.639ZM163.832 81.0276C168.046 81.0276 170.154 78.8426 170.154 74.4726C170.154 70.1173 168.046 67.9396 163.832 67.9396H160.276V81.0276H163.832ZM175.651 82.3211C175.446 82.3211 175.278 82.2553 175.146 82.1238C175.029 81.9923 174.971 81.8242 174.971 81.6196V67.3476C174.971 67.143 175.029 66.975 175.146 66.8434C175.278 66.7119 175.446 66.6461 175.651 66.6461C175.856 66.6461 176.017 66.7119 176.134 66.8434C176.266 66.975 176.332 67.143 176.332 67.3476V81.6196C176.332 81.8242 176.266 81.9923 176.134 82.1238C176.017 82.2553 175.856 82.3211 175.651 82.3211ZM186.761 82.3869C185.327 82.3869 184.076 82.0727 183.007 81.4442C181.954 80.8011 181.142 79.8877 180.571 78.7038C180.015 77.5053 179.737 76.095 179.737 74.4726C179.737 72.8503 180.015 71.4473 180.571 70.2634C181.142 69.0796 181.954 68.1734 183.007 67.545C184.076 66.9019 185.327 66.5803 186.761 66.5803C187.742 66.5803 188.671 66.7484 189.549 67.0846C190.442 67.4061 191.195 67.8738 191.81 68.4876C192.015 68.6776 192.117 68.8896 192.117 69.1234C192.117 69.2842 192.066 69.423 191.964 69.54C191.876 69.6569 191.773 69.7153 191.656 69.7153C191.51 69.7153 191.342 69.6423 191.151 69.4961C190.361 68.853 189.644 68.4073 189 68.1588C188.356 67.9103 187.603 67.7861 186.739 67.7861C184.968 67.7861 183.593 68.3707 182.613 69.54C181.647 70.7092 181.164 72.3534 181.164 74.4726C181.164 76.6065 181.647 78.258 182.613 79.4273C183.593 80.5965 184.968 81.1811 186.739 81.1811C187.603 81.1811 188.356 81.0569 189 80.8084C189.644 80.56 190.361 80.1142 191.151 79.4711C191.371 79.325 191.539 79.2519 191.656 79.2519C191.773 79.2519 191.876 79.3103 191.964 79.4273C192.066 79.5442 192.117 79.683 192.117 79.8438C192.117 80.0776 192.015 80.2896 191.81 80.4796C191.195 81.0934 190.442 81.5684 189.549 81.9046C188.671 82.2261 187.742 82.3869 186.761 82.3869ZM199.449 82.3211C199.244 82.3211 199.083 82.2553 198.966 82.1238C198.849 81.9923 198.79 81.8242 198.79 81.6196V67.9396H193.72C193.529 67.9396 193.376 67.8884 193.259 67.7861C193.156 67.6838 193.105 67.5376 193.105 67.3476C193.105 67.1576 193.156 67.0115 193.259 66.9092C193.376 66.8069 193.529 66.7557 193.72 66.7557H205.178C205.354 66.7557 205.5 66.8142 205.617 66.9311C205.734 67.0334 205.793 67.1723 205.793 67.3476C205.793 67.523 205.734 67.6692 205.617 67.7861C205.5 67.8884 205.354 67.9396 205.178 67.9396H200.129V81.6196C200.129 81.8242 200.064 81.9923 199.932 82.1238C199.815 82.2553 199.654 82.3211 199.449 82.3211ZM208.599 82.3211C208.394 82.3211 208.226 82.2553 208.094 82.1238C207.977 81.9923 207.918 81.8242 207.918 81.6196V67.3476C207.918 67.143 207.977 66.975 208.094 66.8434C208.226 66.7119 208.394 66.6461 208.599 66.6461C208.804 66.6461 208.965 66.7119 209.082 66.8434C209.214 66.975 209.279 67.143 209.279 67.3476V81.6196C209.279 81.8242 209.214 81.9923 209.082 82.1238C208.965 82.2553 208.804 82.3211 208.599 82.3211ZM224.781 66.6461C224.986 66.6461 225.139 66.7119 225.242 66.8434C225.359 66.9603 225.417 67.1284 225.417 67.3476V81.6196C225.417 81.8242 225.359 81.9923 225.242 82.1238C225.125 82.2553 224.964 82.3211 224.759 82.3211C224.539 82.3211 224.342 82.2115 224.166 81.9923L214.551 69.0357V81.6196C214.551 81.8242 214.493 81.9923 214.376 82.1238C214.259 82.2553 214.105 82.3211 213.915 82.3211C213.695 82.3211 213.534 82.2626 213.432 82.1457C213.329 82.0142 213.278 81.8388 213.278 81.6196V67.3476C213.278 67.143 213.337 66.975 213.454 66.8434C213.586 66.7119 213.761 66.6461 213.981 66.6461C214.215 66.6461 214.405 66.7557 214.551 66.975L224.144 79.9096V67.3476C224.144 67.143 224.203 66.975 224.32 66.8434C224.437 66.7119 224.59 66.6461 224.781 66.6461ZM240.79 74.2973C240.966 74.2973 241.105 74.3557 241.207 74.4726C241.325 74.575 241.383 74.7138 241.383 74.8892V80.6988C241.383 81.0788 241.215 81.3419 240.878 81.488C240.278 81.7657 239.546 81.985 238.683 82.1457C237.834 82.3065 236.971 82.3869 236.093 82.3869C234.586 82.3869 233.283 82.08 232.186 81.4661C231.103 80.8376 230.268 79.9315 229.683 78.7476C229.112 77.5492 228.827 76.1242 228.827 74.4726C228.827 72.8503 229.112 71.4473 229.683 70.2634C230.254 69.0796 231.073 68.1734 232.142 67.545C233.21 66.9019 234.476 66.5803 235.939 66.5803C236.964 66.5803 237.922 66.7484 238.815 67.0846C239.707 67.4061 240.439 67.8738 241.01 68.4876C241.2 68.6776 241.295 68.8896 241.295 69.1234C241.295 69.2842 241.251 69.423 241.164 69.54C241.076 69.6569 240.966 69.7153 240.834 69.7153C240.717 69.7153 240.556 69.6423 240.351 69.4961C239.576 68.853 238.859 68.4073 238.2 68.1588C237.542 67.9103 236.788 67.7861 235.939 67.7861C234.125 67.7861 232.72 68.3707 231.725 69.54C230.744 70.6946 230.254 72.3388 230.254 74.4726C230.254 76.6503 230.751 78.3165 231.747 79.4711C232.742 80.6257 234.19 81.203 236.093 81.203C236.825 81.203 237.542 81.1446 238.244 81.0276C238.961 80.8961 239.598 80.7134 240.154 80.4796V75.4373H236.598C236.393 75.4373 236.232 75.3861 236.115 75.2838C236.012 75.1815 235.961 75.0426 235.961 74.8673C235.961 74.6919 236.012 74.553 236.115 74.4507C236.232 74.3484 236.393 74.2973 236.598 74.2973H240.79ZM255.492 82.3869C254.409 82.3869 253.363 82.2188 252.353 81.8826C251.358 81.5319 250.575 81.0642 250.004 80.4796C249.814 80.3188 249.719 80.1069 249.719 79.8438C249.719 79.683 249.763 79.5442 249.851 79.4273C249.953 79.3103 250.063 79.2519 250.18 79.2519C250.326 79.2519 250.495 79.325 250.685 79.4711C252.061 80.6111 253.663 81.1811 255.492 81.1811C256.824 81.1811 257.848 80.918 258.565 80.3919C259.297 79.8511 259.663 79.0911 259.663 78.1119C259.663 77.5419 259.487 77.0815 259.136 76.7307C258.785 76.38 258.339 76.1096 257.797 75.9196C257.256 75.715 256.531 75.5103 255.624 75.3057C254.424 75.0426 253.451 74.7723 252.704 74.4946C251.973 74.2169 251.351 73.8003 250.839 73.245C250.326 72.675 250.07 71.915 250.07 70.965C250.07 70.1027 250.297 69.3426 250.751 68.685C251.219 68.0126 251.87 67.4938 252.704 67.1284C253.539 66.763 254.497 66.5803 255.58 66.5803C256.59 66.5803 257.541 66.7484 258.434 67.0846C259.326 67.4061 260.065 67.8738 260.651 68.4876C260.841 68.6776 260.936 68.8896 260.936 69.1234C260.936 69.2842 260.885 69.423 260.782 69.54C260.695 69.6569 260.592 69.7153 260.475 69.7153C260.329 69.7153 260.161 69.6423 259.97 69.4961C259.18 68.853 258.463 68.4073 257.819 68.1588C257.19 67.9103 256.443 67.7861 255.58 67.7861C254.278 67.7861 253.261 68.0638 252.529 68.6192C251.797 69.1746 251.431 69.9492 251.431 70.943C251.431 71.5423 251.592 72.0319 251.914 72.4119C252.236 72.7773 252.653 73.0696 253.165 73.2888C253.692 73.508 254.365 73.72 255.185 73.9246L255.756 74.0561C256.941 74.3484 257.878 74.6188 258.565 74.8673C259.253 75.1157 259.831 75.503 260.3 76.0292C260.782 76.5407 261.024 77.235 261.024 78.1119C261.024 78.945 260.79 79.6903 260.322 80.348C259.868 80.9911 259.217 81.4953 258.368 81.8607C257.534 82.2115 256.575 82.3869 255.492 82.3869ZM273.443 66.9311C273.575 66.7557 273.736 66.668 273.926 66.668C274.087 66.668 274.226 66.7265 274.343 66.8434C274.46 66.9603 274.518 67.1065 274.518 67.2819C274.518 67.4426 274.467 67.5815 274.365 67.6984L268.877 74.7576V81.6196C268.877 81.8242 268.818 81.9923 268.701 82.1238C268.584 82.2553 268.423 82.3211 268.218 82.3211C268.014 82.3211 267.845 82.2553 267.714 82.1238C267.597 81.9923 267.538 81.8242 267.538 81.6196V74.7138L262.072 67.6984C261.97 67.5815 261.918 67.4426 261.918 67.2819C261.918 67.1211 261.977 66.9823 262.094 66.8653C262.211 66.7338 262.35 66.668 262.511 66.668C262.701 66.668 262.862 66.7557 262.994 66.9311L268.218 73.6834L273.443 66.9311ZM280.915 82.3869C279.832 82.3869 278.786 82.2188 277.776 81.8826C276.781 81.5319 275.998 81.0642 275.428 80.4796C275.237 80.3188 275.142 80.1069 275.142 79.8438C275.142 79.683 275.186 79.5442 275.274 79.4273C275.376 79.3103 275.486 79.2519 275.603 79.2519C275.75 79.2519 275.918 79.325 276.108 79.4711C277.484 80.6111 279.086 81.1811 280.915 81.1811C282.247 81.1811 283.271 80.918 283.989 80.3919C284.72 79.8511 285.086 79.0911 285.086 78.1119C285.086 77.5419 284.911 77.0815 284.559 76.7307C284.208 76.38 283.762 76.1096 283.22 75.9196C282.679 75.715 281.954 75.5103 281.047 75.3057C279.847 75.0426 278.874 74.7723 278.128 74.4946C277.396 74.2169 276.774 73.8003 276.262 73.245C275.75 72.675 275.493 71.915 275.493 70.965C275.493 70.1027 275.72 69.3426 276.174 68.685C276.642 68.0126 277.293 67.4938 278.128 67.1284C278.962 66.763 279.92 66.5803 281.003 66.5803C282.013 66.5803 282.964 66.7484 283.857 67.0846C284.75 67.4061 285.489 67.8738 286.074 68.4876C286.264 68.6776 286.359 68.8896 286.359 69.1234C286.359 69.2842 286.308 69.423 286.206 69.54C286.118 69.6569 286.015 69.7153 285.898 69.7153C285.752 69.7153 285.584 69.6423 285.393 69.4961C284.603 68.853 283.886 68.4073 283.242 68.1588C282.613 67.9103 281.867 67.7861 281.003 67.7861C279.701 67.7861 278.684 68.0638 277.952 68.6192C277.22 69.1746 276.854 69.9492 276.854 70.943C276.854 71.5423 277.015 72.0319 277.337 72.4119C277.659 72.7773 278.076 73.0696 278.589 73.2888C279.115 73.508 279.789 73.72 280.608 73.9246L281.179 74.0561C282.364 74.3484 283.301 74.6188 283.989 74.8673C284.676 75.1157 285.254 75.503 285.723 76.0292C286.206 76.5407 286.447 77.235 286.447 78.1119C286.447 78.945 286.213 79.6903 285.745 80.348C285.291 80.9911 284.64 81.4953 283.791 81.8607C282.957 82.2115 281.998 82.3869 280.915 82.3869ZM293.642 82.3211C293.437 82.3211 293.276 82.2553 293.159 82.1238C293.042 81.9923 292.983 81.8242 292.983 81.6196V67.9396H287.912C287.722 67.9396 287.568 67.8884 287.451 67.7861C287.349 67.6838 287.298 67.5376 287.298 67.3476C287.298 67.1576 287.349 67.0115 287.451 66.9092C287.568 66.8069 287.722 66.7557 287.912 66.7557H299.371C299.547 66.7557 299.693 66.8142 299.81 66.9311C299.927 67.0334 299.986 67.1723 299.986 67.3476C299.986 67.523 299.927 67.6692 299.81 67.7861C299.693 67.8884 299.547 67.9396 299.371 67.9396H294.322V81.6196C294.322 81.8242 294.256 81.9923 294.125 82.1238C294.007 82.2553 293.846 82.3211 293.642 82.3211ZM302.837 82.2115C302.632 82.2115 302.457 82.1457 302.311 82.0142C302.179 81.8826 302.113 81.7219 302.113 81.5319V67.4353C302.113 67.2453 302.179 67.0846 302.311 66.953C302.457 66.8215 302.632 66.7557 302.837 66.7557H311.179C311.369 66.7557 311.515 66.8069 311.618 66.9092C311.735 67.0115 311.793 67.1576 311.793 67.3476C311.793 67.523 311.735 67.6619 311.618 67.7642C311.515 67.8665 311.369 67.9176 311.179 67.9176H303.452V73.7711H310.74C310.93 73.7711 311.076 73.8223 311.179 73.9246C311.296 74.0269 311.354 74.173 311.354 74.363C311.354 74.553 311.296 74.6992 311.179 74.8015C311.076 74.9038 310.93 74.955 310.74 74.955H303.452V81.0496H311.179C311.369 81.0496 311.515 81.1007 311.618 81.203C311.735 81.2907 311.793 81.4296 311.793 81.6196C311.793 81.8096 311.735 81.9557 311.618 82.058C311.515 82.1603 311.369 82.2115 311.179 82.2115H302.837ZM328.566 66.6461C328.786 66.6461 328.954 66.7119 329.071 66.8434C329.203 66.975 329.268 67.143 329.268 67.3476V81.6196C329.268 81.8242 329.21 81.9923 329.093 82.1238C328.976 82.2553 328.815 82.3211 328.61 82.3211C328.405 82.3211 328.251 82.2626 328.149 82.1457C328.046 82.0142 327.995 81.8388 327.995 81.6196V69.4523L322.793 79.493C322.617 79.8292 322.376 79.9973 322.068 79.9973C321.761 79.9973 321.52 79.8292 321.344 79.493L316.098 69.54V81.6196C316.098 81.8388 316.047 82.0142 315.944 82.1457C315.842 82.2626 315.688 82.3211 315.483 82.3211C315.264 82.3211 315.095 82.2626 314.978 82.1457C314.876 82.0142 314.825 81.8388 314.825 81.6196V67.3476C314.825 67.143 314.883 66.975 315 66.8434C315.132 66.7119 315.307 66.6461 315.527 66.6461C315.79 66.6461 316.01 66.8142 316.186 67.1503L322.09 78.4627L327.907 67.1503C328.083 66.8142 328.303 66.6461 328.566 66.6461Z" fill="#55595C"/>
</svg>
