<svg width="192" height="227" viewBox="0 0 192 227" fill="none" xmlns="http://www.w3.org/2000/svg">
<path d="M186.616 23.2063L186.615 23.2048C185.388 21.8979 156.081 -8.67296 114.853 2.41963C96.7876 7.27911 83.5392 19.6436 75.4768 39.1677C73.4778 44.0093 67.4136 45.991 53.8469 46.2364C53.227 46.2482 52.6076 46.2758 51.9952 46.3047C50.9303 46.3538 48.9506 46.4467 48.663 46.1772C47.8568 45.4258 47.5692 44.2656 47.9313 43.2204C49.9659 37.3437 52.5462 33.0208 54.3559 30.4272C57.325 26.1649 56.6811 20.3021 52.8579 16.7892L48.0493 12.3723L44.3642 8.9393C41.9969 6.73165 38.805 5.76102 35.6075 6.26651C32.4143 6.77437 29.6831 8.68771 28.1137 11.5189C24.3075 18.3919 18.4416 29.4535 16.1465 33.8501L15.6935 34.7121C-1.83041 67.9768 -4.69425 101.415 7.18134 134.101C17.9622 163.769 35.4347 189.572 56.3821 206.754C72.4625 219.944 88.9677 226.775 104.207 226.774C109.456 226.774 114.558 225.962 119.438 224.321C137.751 218.162 150.447 197.315 155.188 165.621C159.249 138.474 156.617 106.301 148.318 81.6589C143.404 67.0668 131.1 57.0775 110.703 51.12C109.747 50.8413 108.982 50.1517 108.603 49.2285C108.224 48.3027 108.285 47.2748 108.77 46.4086C112.292 40.1159 117.108 36.2216 123.496 34.5039C145.433 28.6008 161.734 45.272 162.376 45.942C168.648 52.6224 179.189 52.9541 185.872 46.6877C192.553 40.4202 192.888 29.8852 186.616 23.2063ZM177.895 38.1955C175.898 40.0677 172.748 39.9691 170.83 37.9284C169.951 37.0121 148.996 15.5747 120.464 23.2568C111.02 25.7968 103.662 31.6735 98.5972 40.7216C96.3681 44.7029 96.0835 49.4116 97.8165 53.642C99.5468 57.8648 103.051 61.0212 107.432 62.3002C124.13 67.1768 133.612 74.5096 137.27 85.3748C145.017 108.375 147.464 138.464 143.66 163.899C139.658 190.656 129.473 208.655 115.718 213.282C100.842 218.286 81.9084 212.625 63.7746 197.75C44.4203 181.875 28.2115 157.858 18.1347 130.125C7.42683 100.654 10.0739 70.3792 26.0042 40.1399L26.4781 39.2369C28.9545 34.4946 34.0968 24.8231 37.5574 18.5224L44.191 24.6499C42.018 27.9012 39.1742 32.8927 36.9173 39.4115C35.0494 44.8067 36.5412 50.8071 40.7155 54.6975C44.5913 58.3091 49.1829 58.0949 52.537 57.9402C53.0403 57.917 53.5501 57.892 54.0591 57.8837C63.3187 57.7159 80.5559 57.4043 86.2501 43.6125C92.8579 27.6123 103.501 17.5369 117.882 13.6675C152.429 4.37491 177.072 30.063 178.119 31.1766C179.992 33.173 179.892 36.3218 177.895 38.1955Z" fill="#FF0078"/>
<path d="M31.8849 100.832C31.514 97.9971 28.91 95.9921 26.0794 96.3659C23.2413 96.7339 21.2391 99.3312 21.6074 102.167C21.8094 103.726 26.8027 140.621 47.7943 164.225C48.8044 165.36 50.1998 165.946 51.6083 165.963C52.8529 165.978 54.1062 165.547 55.1106 164.656C57.2494 162.754 57.4423 159.481 55.5411 157.343C36.6997 136.158 31.9305 101.182 31.8849 100.832Z" fill="#FF0078"/>
<path d="M64.4375 181.94C67.4585 181.94 69.9073 179.493 69.9073 176.473C69.9073 173.454 67.4585 171.007 64.4375 171.007C61.4171 171.007 58.9683 173.454 58.9683 176.473C58.9683 179.493 61.4171 181.94 64.4375 181.94Z" fill="#FF0078"/>
</svg>
